HIERARCHY
ROOT Hips
{
	OFFSET 28.832817 438.721039 9.089394
	CHANNELS 6 Xposition Yposition Zposition Zrotation Xrotation Yrotation
	JOINT Chest
	{
		OFFSET -1.534996 78.524017 -11.631012
		CHANNELS 6 Xposition Yposition Zposition Zrotation Xrotation Yrotation
		JOINT Chest2
		{
			OFFSET 0.000000 33.432999 0.000000
			CHANNELS 6 Xposition Yposition Zposition Zrotation Xrotation Yrotation
			JOINT Neck
			{
				OFFSET 0.000000 77.854996 0.000038
				CHANNELS 6 Xposition Yposition Zposition Zrotation Xrotation Yrotation
				JOINT Head
				{
					OFFSET 0.000000 21.739006 0.000000
					CHANNELS 6 Xposition Yposition Zposition Zrotation Xrotation Yrotation
					End Site
					{
						OFFSET 0.000000 105.281982 0.000000
					}
				}
			}
			JOINT LeftCollar
			{
				OFFSET 26.763000 49.383011 16.524048
				CHANNELS 6 Xposition Yposition Zposition Zrotation Xrotation Yrotation
				JOINT LeftShoulder
				{
					OFFSET 42.989998 0.000000 0.000000
					CHANNELS 6 Xposition Yposition Zposition Zrotation Xrotation Yrotation
					JOINT LeftElbow
					{
						OFFSET 0.000000 -102.451019 -0.000038
						CHANNELS 6 Xposition Yposition Zposition Zrotation Xrotation Yrotation
						JOINT LeftWrist
						{
							OFFSET 0.000000 -127.033005 0.000038
							CHANNELS 6 Xposition Yposition Zposition Zrotation Xrotation Yrotation
							End Site
							{
								OFFSET 0.000000 -21.739006 -0.000038
							}
						}
					}
				}
			}
			JOINT RightCollar
			{
				OFFSET -25.345993 51.949997 16.864052
				CHANNELS 6 Xposition Yposition Zposition Zrotation Xrotation Yrotation
				JOINT RightShoulder
				{
					OFFSET -41.441002 0.000000 0.000000
					CHANNELS 6 Xposition Yposition Zposition Zrotation Xrotation Yrotation
					JOINT RightElbow
					{
						OFFSET 0.000000 -101.165009 -0.000038
						CHANNELS 6 Xposition Yposition Zposition Zrotation Xrotation Yrotation
						JOINT RightWrist
						{
							OFFSET 0.000000 -129.378021 0.000038
							CHANNELS 6 Xposition Yposition Zposition Zrotation Xrotation Yrotation
							End Site
							{
								OFFSET 0.000000 -21.739006 -0.000038
							}
						}
					}
				}
			}
		}
	}
	JOINT LeftHip
	{
		OFFSET 21.755981 -26.628990 -0.644951
		CHANNELS 6 Xposition Yposition Zposition Zrotation Xrotation Yrotation
		JOINT LeftKnee
		{
			OFFSET 0.000000 -185.857986 -0.000038
			CHANNELS 6 Xposition Yposition Zposition Zrotation Xrotation Yrotation
			JOINT LeftAnkle
			{
				OFFSET 0.000000 -189.794998 -0.000038
				CHANNELS 6 Xposition Yposition Zposition Zrotation Xrotation Yrotation
				End Site
				{
					OFFSET 0.000000 -0.000012 92.639999
				}
			}
		}
	}
	JOINT RightHip
	{
		OFFSET -20.923996 -25.811996 0.581055
		CHANNELS 6 Xposition Yposition Zposition Zrotation Xrotation Yrotation
		JOINT RightKnee
		{
			OFFSET 0.000000 -186.649994 -0.000038
			CHANNELS 6 Xposition Yposition Zposition Zrotation Xrotation Yrotation
			JOINT RightAnkle
			{
				OFFSET 0.000000 -185.666016 -0.000038
				CHANNELS 6 Xposition Yposition Zposition Zrotation Xrotation Yrotation
				End Site
				{
					OFFSET 0.000000 -0.000010 84.976006
				}
			}
		}
	}
}
MOTION
Frames: 8
Frame Time: 0.041667
257.684265 414.308807 -112.779045 3.378898 2.712636 188.899168 -1.534966 78.523972 -11.630979 9.433693 9.636388 -9.461002 -0.000006 33.433044 0.000001 1.027153 -4.387763 -13.323667 0.000006 77.855003 0.000033 -3.068706 20.546517 -14.946593 0.000015 21.738977 -0.000021 -0.930406 0.289244 1.107024 26.762997 49.382980 16.524036 20.762605 5.099961 -7.673001 42.989994 0.000057 -0.000021 86.777014 -15.693497 -13.976789 -0.000054 -102.450974 -0.000075 -4.730480 -37.460992 5.610920 -0.000020 -127.032974 0.000068 -177.468805 -179.740854 220.275103 -25.345993 51.949993 16.864048 -4.913470 3.385681 -6.025768 -41.440983 -0.000071 0.000010 -82.901100 20.315657 1.457181 -0.000032 -101.164948 -0.000012 11.793496 -24.966027 -23.695791 -0.000004 -129.377991 0.000085 -21.003865 0.340099 -12.779261 21.755999 -26.628975 -0.644920 -165.914420 -156.833137 -151.553387 -0.000034 -185.857986 -0.000007 -164.146631 100.660336 128.355784 -0.000030 -189.795013 -0.000018 -6.711601 13.227580 16.455065 -20.923954 -25.811979 0.581060 164.687581 -146.908954 125.115760 0.000017 -186.650024 -0.000020 134.893709 140.715093 -104.382011 -0.000066 -185.666046 -0.000032 -8.779587 15.202159 4.850426 
253.603333 415.373413 -123.765808 3.072334 2.223756 192.926534 -1.534988 78.524025 -11.630989 8.509836 9.720099 -13.426787 -0.000005 33.432938 -0.000005 0.663415 -4.340368 -6.387061 0.000024 77.854973 0.000038 -2.105050 20.752944 -10.992376 0.000016 21.739037 0.000008 -1.194909 0.924375 1.541536 26.763035 49.382935 16.524044 20.177125 4.038640 -7.690558 42.989998 -0.000031 0.000010 86.934047 -15.515133 -15.285875 -0.000025 -102.451080 -0.000061 -3.931323 -36.901326 6.913363 0.000038 -127.032990 0.000072 -177.640871 -179.317464 215.577955 -25.345984 51.949955 16.864046 -5.370808 3.164969 -5.781819 -41.441032 0.000072 0.000025 -81.857563 19.224076 2.561643 -0.000006 -101.164970 -0.000037 10.932889 -24.086563 -24.374164 0.000038 -129.377960 0.000078 -20.299800 -0.588405 -12.177570 21.755974 -26.628963 -0.644954 -160.172622 -151.790012 -136.294485 -0.000018 -185.857986 0.000007 -126.251266 108.755251 93.491001 -0.000017 -189.795013 -0.000032 -4.020642 7.102385 18.900815 -20.923977 -25.811928 0.581048 163.332636 -148.328227 125.298222 0.000028 -186.650024 0.000013 130.911476 140.370592 -92.297152 -0.000015 -185.666016 -0.000053 5.050332 8.557463 -6.931556 
246.717819 418.117096 -133.530106 2.210877 1.665478 196.217552 -1.534981 78.523994 -11.631001 7.397715 9.922134 -16.678069 -0.000014 33.433022 0.000008 0.320932 -4.551842 -0.268450 0.000013 77.855026 0.000061 -1.905992 21.148755 -6.419253 0.000009 21.738951 -0.000033 -1.921927 1.069546 1.948438 26.762980 49.383041 16.524069 17.635241 6.693926 -7.156099 42.990070 0.000036 -0.000021 89.214285 -14.730205 -14.103775 0.000072 -102.451019 -0.000039 -3.132526 -36.451743 7.366070 0.000002 -127.033020 0.000034 -177.999893 -179.606204 211.086245 -25.346001 51.950066 16.864065 -4.959195 3.632963 -4.907484 -41.440979 0.000091 0.000000 -81.614900 18.391936 3.312603 -0.000008 -101.164948 -0.000079 9.799571 -22.952507 -26.199689 0.000039 -129.377960 0.000063 -19.560171 -2.072467 -10.573842 21.755972 -26.628904 -0.644963 -156.483350 -148.839931 -125.397888 0.000042 -185.858032 -0.000031 -126.294747 118.671081 99.677520 -0.000001 -189.795013 -0.000044 1.319552 6.222617 16.606645 -20.923960 -25.811970 0.581045 161.369940 -150.360973 125.321349 0.000036 -186.650024 -0.000005 127.940385 141.232288 -79.841209 -0.000011 -185.666031 -0.000031 20.009504 -4.253975 -14.533611 
236.925568 421.858826 -142.306580 1.080015 1.124195 198.404482 -1.534998 78.524002 -11.631035 6.490323 10.431497 -18.892407 -0.000017 33.433037 0.000001 0.104303 -4.853990 4.927969 -0.000014 77.855042 0.000090 -2.931072 21.249425 -2.233090 -0.000019 21.739008 -0.000009 -2.156788 1.014157 2.935949 26.762985 49.383045 16.524061 15.199235 7.383680 -6.647760 42.989964 0.000023 -0.000001 89.293194 -13.171799 -14.405332 0.000002 -102.450989 -0.000040 -3.112060 -34.696015 6.582351 0.000070 -127.032990 0.000051 -178.848244 -179.944011 206.573758 -25.346022 51.949982 16.864048 -5.018790 4.044592 -4.537996 -41.440979 0.000008 0.000025 -81.219241 17.275644 3.944629 0.000030 -101.165016 -0.000063 8.595269 -21.619714 -28.495845 0.000068 -129.377991 0.000049 -19.586249 -4.653503 -7.533714 21.755970 -26.628971 -0.644986 -155.335400 -148.269624 -121.423046 -0.000007 -185.858002 0.000031 -135.581837 126.801151 114.495171 -0.000013 -189.794983 -0.000049 10.836683 11.211742 8.141421 -20.923956 -25.812031 0.581047 159.646192 -152.590470 125.919824 0.000022 -186.650055 -0.000037 126.598021 142.887940 -71.648172 -0.000045 -185.666016 -0.000092 31.703078 -16.754346 -16.342903 
224.120346 425.752075 -150.043854 -0.394729 0.577864 200.108792 -1.534996 78.523964 -11.631013 5.612913 11.253178 -20.710802 -0.000014 33.432976 0.000000 -0.029254 -4.992380 9.324688 0.000039 77.855026 0.000021 -3.151666 20.476415 2.394865 -0.000024 21.738985 -0.000006 -3.212811 0.886645 2.677116 26.763012 49.382957 16.524048 13.234654 7.114284 -5.575234 42.989983 0.000031 0.000024 87.910245 -12.104280 -15.082854 0.000043 -102.450989 -0.000056 -3.567991 -31.008236 5.735893 0.000066 -127.032997 -0.000003 -179.985211 -178.753618 202.027242 -25.345951 51.950020 16.864038 -4.379192 4.240300 -3.477790 -41.440918 -0.000030 0.000008 -81.274818 17.591822 3.592674 -0.000085 -101.164917 -0.000057 7.447405 -19.989279 -29.984770 0.000048 -129.377945 0.000031 -19.207458 -7.465891 -2.358393 21.756001 -26.628937 -0.644957 -156.962433 -149.347837 -123.753739 0.000007 -185.857986 -0.000028 -146.073608 132.850034 129.977407 -0.000016 -189.795013 -0.000047 13.427351 13.746875 -5.023160 -20.923973 -25.811977 0.581063 158.216906 -154.637696 127.488896 0.000005 -186.650024 -0.000032 125.650510 144.960274 -64.990937 -0.000023 -185.666031 -0.000075 43.163346 -29.310080 -16.081665 
208.313675 428.892578 -156.819626 -2.029949 0.006750 201.255854 -1.534993 78.523964 -11.630988 4.857770 11.997561 -21.996833 -0.000001 33.432926 -0.000018 -0.113794 -5.160094 12.858300 -0.000009 77.855026 0.000035 -3.913952 19.451576 6.483035 -0.000029 21.739035 -0.000016 -3.895031 0.508136 2.839375 26.762970 49.383026 16.524052 10.250063 7.381461 -5.057812 42.990013 0.000069 -0.000023 87.098429 -9.750975 -15.973275 -0.000057 -102.451027 0.000002 -3.679554 -27.002670 5.428049 -0.000059 -127.033012 0.000056 -181.570293 -177.728994 196.903111 -25.346004 51.950016 16.864058 -4.293351 4.386515 -2.790118 -41.440941 0.000025 -0.000007 -80.852774 17.915301 3.343929 -0.000078 -101.164963 -0.000021 6.317517 -17.796338 -30.247288 -0.000028 -129.378082 0.000004 -17.739683 -10.760201 4.435418 21.755970 -26.629000 -0.644931 -160.192197 -151.599204 -130.163762 -0.000006 -185.857971 -0.000026 -154.920438 135.443553 139.982815 0.000003 -189.794998 -0.000040 21.806813 16.006256 -13.007707 -20.923985 -25.811993 0.581062 156.866988 -155.220557 126.965622 0.000035 -186.650024 -0.000048 122.829901 147.584665 -60.607499 -0.000030 -185.666046 -0.000058 51.913830 -36.817807 -15.707362 
190.686279 429.973602 -162.694458 -3.363545 -0.817297 202.039577 -1.534961 78.524033 -11.630997 4.374303 12.124061 -22.911774 0.000013 33.432968 0.000010 -0.198203 -5.355741 15.816160 -0.000004 77.855080 0.000065 -4.638901 18.236755 10.025129 -0.000002 21.738939 -0.000030 -4.680511 0.094854 3.488372 26.762997 49.383030 16.524050 7.748802 7.536412 -4.686231 42.990013 0.000041 -0.000011 85.483151 -7.023679 -17.789851 -0.000034 -102.450989 -0.000079 -3.367976 -22.381097 4.479516 -0.000045 -127.033035 0.000023 -181.215710 -177.956167 193.003360 -25.346012 51.950016 16.864048 -3.730682 4.519563 -2.303093 -41.440971 -0.000035 0.000020 -80.843915 18.787479 3.473310 0.000039 -101.164871 -0.000033 5.128966 -15.311489 -28.884515 0.000004 -129.378036 0.000036 -15.585652 -13.722967 11.501264 21.755997 -26.628973 -0.644961 -164.155783 -154.123150 -138.759746 0.000010 -185.857971 -0.000013 -163.373221 135.243415 146.919869 -0.000007 -189.795013 -0.000024 21.834897 15.620366 -10.598541 -20.923954 -25.811930 0.581080 155.775469 -153.626391 124.436266 0.000022 -186.650055 -0.000017 118.513659 149.824393 -58.504381 -0.000041 -185.666031 -0.000076 56.437973 -39.272000 -16.974948 
174.036697 428.583527 -168.031525 -3.861094 -1.843662 203.040460 -1.535007 78.523987 -11.631014 4.001994 11.769541 -23.950914 -0.000003 33.433052 0.000017 -0.236094 -5.533298 18.152228 0.000028 77.855049 0.000059 -4.688437 16.407665 13.378844 -0.000005 21.738976 0.000008 -5.532864 -0.326245 4.279720 26.763008 49.383095 16.524046 6.231979 8.424267 -4.809239 42.989994 0.000019 0.000012 83.350472 -3.833669 -19.368314 -0.000064 -102.450989 -0.000029 -2.526623 -15.984446 1.763526 -0.000029 -127.033005 0.000064 -180.019307 -177.742682 192.348249 -25.345993 51.950081 16.864048 -2.570114 4.742232 -1.803307 -41.440994 0.000001 0.000012 -80.003816 20.219447 3.614629 -0.000027 -101.165009 -0.000074 3.607345 -12.693870 -27.019311 0.000063 -129.377960 0.000050 -14.892958 -15.452430 18.805012 21.755993 -26.629032 -0.644983 -167.538858 -155.532546 -146.212111 0.000001 -185.857971 -0.000035 -169.813884 134.486152 150.316522 0.000000 -189.795013 -0.000032 19.035148 14.494594 -3.909371 -20.923986 -25.811968 0.581036 155.403018 -150.611723 121.328858 0.000050 -186.650024 0.000010 113.795760 151.127416 -53.258212 -0.000040 -185.666016 -0.000057 55.678753 -41.815644 -17.613646 
